<svg width="25" height="25" viewBox="0 0 25 25" fill="none" xmlns="http://www.w3.org/2000/svg">
<path d="M24.8365 4.97137C24.7701 4.89165 24.6869 4.82752 24.593 4.7835C24.499 4.73949 24.3966 4.71667 24.2928 4.71667H5.07083L4.46115 1.35604C4.39208 0.97546 4.19154 0.631216 3.89455 0.383382C3.59755 0.135548 3.22296 -0.000138658 2.83613 1.06329e-07H0.707558C0.519902 1.06329e-07 0.339932 0.07454 0.207239 0.207222C0.0745461 0.339904 0 0.519859 0 0.7075C0 0.895141 0.0745461 1.0751 0.207239 1.20778C0.339932 1.34046 0.519902 1.415 0.707558 1.415H2.83023C2.88608 1.41409 2.94044 1.43303 2.98363 1.46844C3.02682 1.50385 3.05604 1.55344 3.06608 1.60838L6.07438 18.1521C6.16981 18.6798 6.42696 19.1648 6.81024 19.54C6.34742 19.9101 6.0018 20.4065 5.81521 20.969C5.62863 21.5314 5.60907 22.1359 5.75891 22.7093C5.90875 23.2826 6.22156 23.8003 6.65949 24.1996C7.09743 24.5989 7.64171 24.8627 8.22647 24.9591C8.81123 25.0556 9.41141 24.9805 9.95437 24.7429C10.4973 24.5054 10.9598 24.1156 11.2858 23.6207C11.6119 23.1258 11.7875 22.5471 11.7914 21.9545C11.7953 21.3619 11.6274 20.7808 11.308 20.2817H17.4661C17.0994 20.8554 16.9342 21.5349 16.9965 22.213C17.0588 22.891 17.345 23.529 17.8101 24.0264C18.2752 24.5237 18.8926 24.8521 19.565 24.9598C20.2374 25.0674 20.9265 24.9482 21.5236 24.6209C22.1207 24.2936 22.5919 23.7768 22.8627 23.1521C23.1336 22.5274 23.1888 21.8303 23.0196 21.1708C22.8504 20.5112 22.4665 19.9267 21.9283 19.5096C21.3902 19.0924 20.7284 18.8662 20.0475 18.8667H8.62867C8.35249 18.8667 8.08506 18.7698 7.873 18.5929C7.66094 18.416 7.51771 18.1703 7.46827 17.8986L7.04374 15.565H21.0027C21.6103 15.5652 22.1986 15.3521 22.6652 14.9629C23.1318 14.5737 23.447 14.0331 23.5558 13.4354L24.9886 5.55034C25.0071 5.44858 25.0031 5.344 24.9768 5.24397C24.9505 5.14394 24.9026 5.05089 24.8365 4.97137ZM10.3775 21.9325C10.3775 22.259 10.2807 22.5782 10.0993 22.8497C9.91786 23.1211 9.66002 23.3327 9.35834 23.4577C9.05667 23.5826 8.72472 23.6153 8.40446 23.5516C8.0842 23.4879 7.79003 23.3307 7.55913 23.0998C7.32824 22.8689 7.171 22.5748 7.1073 22.2546C7.0436 21.9343 7.07629 21.6024 7.20125 21.3008C7.32621 20.9991 7.53782 20.7413 7.80932 20.5599C8.08082 20.3785 8.40002 20.2817 8.72655 20.2817C9.16441 20.2817 9.58434 20.4556 9.89396 20.7652C10.2036 21.0748 10.3775 21.4947 10.3775 21.9325ZM21.6984 21.9325C21.6984 22.259 21.6016 22.5782 21.4202 22.8497C21.2388 23.1211 20.9809 23.3327 20.6793 23.4577C20.3776 23.5826 20.0456 23.6153 19.7254 23.5516C19.4051 23.4879 19.111 23.3307 18.8801 23.0998C18.6492 22.8689 18.4919 22.5748 18.4282 22.2546C18.3645 21.9343 18.3972 21.6024 18.5222 21.3008C18.6471 20.9991 18.8587 20.7413 19.1302 20.5599C19.4017 20.3785 19.7209 20.2817 20.0475 20.2817C20.4853 20.2817 20.9053 20.4556 21.2149 20.7652C21.5245 21.0748 21.6984 21.4947 21.6984 21.9325ZM22.1631 13.1819C22.1136 13.4536 21.9704 13.6993 21.7583 13.8762C21.5463 14.0532 21.2789 14.15 21.0027 14.15H6.78666L5.32909 6.13167H23.4449L22.1631 13.1819Z" fill="#BE646D"/>
</svg>
