<svg width="15" height="15" viewBox="0 0 15 15" fill="none" xmlns="http://www.w3.org/2000/svg">
<path d="M10.915 9.12891C7.3877 9.12891 5.19336 7.0166 5.19336 3.59863C5.19336 2.6416 5.35059 1.7666 5.60352 1.28809C5.72656 1.04883 5.76758 0.884766 5.76758 0.700195C5.76758 0.37207 5.50781 0.0507812 5.11133 0.0507812C5.00879 0.0507812 4.83105 0.0849609 4.60547 0.173828C2.00781 1.22656 0.223633 3.90625 0.223633 6.80469C0.223633 10.9746 3.25879 14.0166 7.42871 14.0166C10.3887 14.0166 12.8564 12.417 13.9844 9.83301C14.0869 9.60059 14.1211 9.40234 14.1211 9.27246C14.1211 8.88965 13.8408 8.65039 13.5195 8.65039C13.3555 8.65039 13.1982 8.67773 12.9727 8.78027C12.4668 8.99219 11.6807 9.12891 10.915 9.12891ZM1.7207 6.77051C1.7207 4.96582 2.60254 3.19531 4.05176 2.15625C3.89453 2.65527 3.80566 3.20215 3.80566 3.80371C3.80566 7.9668 6.38281 10.4893 10.6416 10.4893C11.1475 10.4893 11.585 10.4346 11.9951 10.291C11.0312 11.6924 9.30859 12.5195 7.46289 12.5195C4.14746 12.5195 1.7207 10.0928 1.7207 6.77051Z" fill="#FFC634"/>
</svg>
