<svg width="39" height="40" viewBox="0 0 39 40" fill="none" xmlns="http://www.w3.org/2000/svg">
<path d="M11.2539 0H27.087C33.1187 0 38.0194 5.2 38.0194 11.6V28.4C38.0194 31.4765 36.8676 34.427 34.8174 36.6024C32.7672 38.7779 29.9865 40 27.087 40H11.2539C5.2222 40 0.321472 34.8 0.321472 28.4V11.6C0.321472 8.52349 1.47328 5.57298 3.5235 3.39756C5.57372 1.22214 8.35442 0 11.2539 0ZM10.8769 4C9.07723 4 7.35128 4.75857 6.07873 6.10883C4.80618 7.45909 4.09127 9.29044 4.09127 11.2V28.8C4.09127 32.78 7.12595 36 10.8769 36H27.464C29.2636 36 30.9896 35.2414 32.2622 33.8912C33.5347 32.5409 34.2496 30.7096 34.2496 28.8V11.2C34.2496 7.22 31.2149 4 27.464 4H10.8769ZM29.0661 7C29.691 7 30.2903 7.26339 30.7322 7.73223C31.174 8.20107 31.4223 8.83696 31.4223 9.5C31.4223 10.163 31.174 10.7989 30.7322 11.2678C30.2903 11.7366 29.691 12 29.0661 12C28.4413 12 27.842 11.7366 27.4001 11.2678C26.9583 10.7989 26.71 10.163 26.71 9.5C26.71 8.83696 26.9583 8.20107 27.4001 7.73223C27.842 7.26339 28.4413 7 29.0661 7ZM19.1704 10C21.67 10 24.0671 11.0536 25.8346 12.9289C27.602 14.8043 28.5949 17.3478 28.5949 20C28.5949 22.6522 27.602 25.1957 25.8346 27.0711C24.0671 28.9464 21.67 30 19.1704 30C16.6709 30 14.2738 28.9464 12.5063 27.0711C10.7389 25.1957 9.74596 22.6522 9.74596 20C9.74596 17.3478 10.7389 14.8043 12.5063 12.9289C14.2738 11.0536 16.6709 10 19.1704 10ZM19.1704 14C17.6707 14 16.2324 14.6321 15.172 15.7574C14.1115 16.8826 13.5157 18.4087 13.5157 20C13.5157 21.5913 14.1115 23.1174 15.172 24.2426C16.2324 25.3679 17.6707 26 19.1704 26C20.6702 26 22.1085 25.3679 23.1689 24.2426C24.2294 23.1174 24.8251 21.5913 24.8251 20C24.8251 18.4087 24.2294 16.8826 23.1689 15.7574C22.1085 14.6321 20.6702 14 19.1704 14Z" fill="#514546"/>
</svg>
