<svg width="39" height="40" viewBox="0 0 39 40" fill="none" xmlns="http://www.w3.org/2000/svg">
<path d="M11.2537 0H27.0868C33.1184 0 38.0191 5.2 38.0191 11.6V28.4C38.0191 31.4765 36.8673 34.427 34.8171 36.6024C32.7669 38.7779 29.9862 40 27.0868 40H11.2537C5.22201 40 0.321289 34.8 0.321289 28.4V11.6C0.321289 8.52349 1.47309 5.57298 3.52331 3.39756C5.57353 1.22214 8.35422 0 11.2537 0ZM10.8767 4C9.07703 4 7.35108 4.75857 6.07853 6.10883C4.80598 7.45909 4.09107 9.29044 4.09107 11.2V28.8C4.09107 32.78 7.12575 36 10.8767 36H27.4637C29.2634 36 30.9893 35.2414 32.2619 33.8912C33.5344 32.5409 34.2493 30.7096 34.2493 28.8V11.2C34.2493 7.22 31.2147 4 27.4637 4H10.8767ZM29.0659 7C29.6908 7 30.2901 7.26339 30.7319 7.73223C31.1738 8.20107 31.422 8.83696 31.422 9.5C31.422 10.163 31.1738 10.7989 30.7319 11.2678C30.2901 11.7366 29.6908 12 29.0659 12C28.441 12 27.8417 11.7366 27.3999 11.2678C26.958 10.7989 26.7098 10.163 26.7098 9.5C26.7098 8.83696 26.958 8.20107 27.3999 7.73223C27.8417 7.26339 28.441 7 29.0659 7ZM19.1702 10C21.6697 10 24.0669 11.0536 25.8343 12.9289C27.6017 14.8043 28.5947 17.3478 28.5947 20C28.5947 22.6522 27.6017 25.1957 25.8343 27.0711C24.0669 28.9464 21.6697 30 19.1702 30C16.6707 30 14.2735 28.9464 12.5061 27.0711C10.7387 25.1957 9.74575 22.6522 9.74575 20C9.74575 17.3478 10.7387 14.8043 12.5061 12.9289C14.2735 11.0536 16.6707 10 19.1702 10ZM19.1702 14C17.6705 14 16.2322 14.6321 15.1717 15.7574C14.1113 16.8826 13.5155 18.4087 13.5155 20C13.5155 21.5913 14.1113 23.1174 15.1717 24.2426C16.2322 25.3679 17.6705 26 19.1702 26C20.6699 26 22.1082 25.3679 23.1687 24.2426C24.2291 23.1174 24.8249 21.5913 24.8249 20C24.8249 18.4087 24.2291 16.8826 23.1687 15.7574C22.1082 14.6321 20.6699 14 19.1702 14Z" fill="white"/>
</svg>
