<svg width="39" height="40" viewBox="0 0 39 40" fill="none" xmlns="http://www.w3.org/2000/svg">
<path d="M30.7354 6.26667C29.0919 4.53249 28.1862 2.30541 28.1869 0H20.758V27.5556C20.7007 29.0467 20.0196 30.4592 18.8581 31.4954C17.6966 32.5317 16.1454 33.1109 14.5311 33.1111C11.1171 33.1111 8.28017 30.5333 8.28017 27.3333C8.28017 23.5111 12.2711 20.6444 16.3823 21.8222V14.8C8.08783 13.7778 0.827148 19.7333 0.827148 27.3333C0.827148 34.7333 7.46274 40 14.507 40C22.0562 40 28.1869 34.3333 28.1869 27.3333V13.3556C31.1994 15.3552 34.8162 16.4281 38.525 16.4222V9.55556C38.525 9.55556 34.0051 9.75556 30.7354 6.26667Z" fill="white"/>
</svg>
