<svg width="39" height="40" viewBox="0 0 39 40" fill="none" xmlns="http://www.w3.org/2000/svg">
<path d="M30.7363 6.26667C29.0929 4.53249 28.1872 2.30541 28.1879 0H20.7589V27.5556C20.7016 29.0467 20.0205 30.4592 18.859 31.4954C17.6975 32.5317 16.1463 33.1109 14.532 33.1111C11.118 33.1111 8.28104 30.5333 8.28104 27.3333C8.28104 23.5111 12.272 20.6444 16.3832 21.8222V14.8C8.0887 13.7778 0.828003 19.7333 0.828003 27.3333C0.828003 34.7333 7.46361 40 14.5079 40C22.0571 40 28.1879 34.3333 28.1879 27.3333V13.3556C31.2003 15.3552 34.8171 16.4281 38.5259 16.4222V9.55556C38.5259 9.55556 34.006 9.75556 30.7363 6.26667Z" fill="#514546"/>
</svg>
