<svg width="37" height="38" viewBox="0 0 37 38" fill="none" xmlns="http://www.w3.org/2000/svg">
<path d="M36.6493 5.60159C36.5728 5.37987 36.443 5.19027 36.2765 5.05679C36.1099 4.92331 35.914 4.85195 35.7135 4.85171H30.376C29.7007 3.39429 28.7143 2.17737 27.5175 1.32515C26.3208 0.472922 24.9565 0.015908 23.5639 0.000745678C22.5525 -0.014765 21.5486 0.211843 20.6114 0.667249C19.6742 1.12265 18.8225 1.79767 18.1064 2.65261C17.3684 3.51908 16.7827 4.55337 16.3835 5.69467C15.9844 6.83596 15.78 8.06123 15.7823 9.29844V11.0488C8.68808 9.02759 2.84383 2.05028 2.77627 1.97751C2.64015 1.81576 2.46847 1.70356 2.28117 1.65395C2.09387 1.60434 1.89865 1.61936 1.71821 1.69726C1.53776 1.77517 1.3795 1.91276 1.26181 2.09404C1.14413 2.27532 1.07185 2.49284 1.05339 2.72133C0.335531 12.2656 2.64452 18.6386 4.70859 22.3051C5.77562 24.2258 7.09093 25.9315 8.60532 27.3582C5.98892 31.1985 1.62262 33.1975 1.57532 33.2198C1.43108 33.2836 1.30087 33.386 1.19457 33.519C1.08827 33.652 1.00867 33.8122 0.961791 33.9875C0.914914 34.1628 0.901994 34.3486 0.924011 34.5307C0.946028 34.7129 1.0024 34.8867 1.08886 35.0389C1.25608 35.338 2.90802 38 8.68808 38C20.4914 38 30.3473 27.0853 31.2915 13.0701L36.4297 6.92348C36.5715 6.75384 36.668 6.5377 36.7071 6.3024C36.7462 6.0671 36.7261 5.82321 36.6493 5.60159ZM29.5923 11.6754C29.4177 11.8838 29.3126 12.1612 29.2967 12.4556C28.6075 25.4198 19.554 35.5745 8.68808 35.5745C6.32336 35.5745 4.84371 35.0874 3.94849 34.6043C5.85717 33.4563 8.96847 31.1925 10.8822 27.7584C10.9585 27.621 11.0106 27.4664 11.0353 27.3041C11.06 27.1418 11.0568 26.9752 11.0258 26.8145C10.9945 26.6527 10.9358 26.5003 10.8533 26.3668C10.7707 26.2333 10.6662 26.1215 10.5461 26.0383C10.5241 26.0222 8.32831 24.4496 6.32336 20.8397C3.95863 16.5749 2.82863 11.4066 2.94518 5.43383C5.45854 7.98059 10.6424 12.5264 16.6268 13.7209C16.7722 13.7503 16.9212 13.7414 17.0634 13.6948C17.2056 13.6482 17.3376 13.565 17.4502 13.4511C17.5627 13.3372 17.6532 13.1952 17.7152 13.0352C17.7772 12.8751 17.8093 12.7008 17.8092 12.5243V9.29844C17.8076 8.38253 17.9591 7.47549 18.2547 6.63063C18.5502 5.78578 18.984 5.02015 19.5304 4.37874C20.0564 3.75019 20.6821 3.2537 21.3707 2.91841C22.0593 2.58312 22.7969 2.41579 23.5403 2.42623C25.8087 2.46059 27.9319 4.11801 28.817 6.54955C28.8959 6.76585 29.0258 6.94991 29.1908 7.07916C29.3558 7.20841 29.5488 7.27723 29.746 7.2772H33.266L29.5923 11.6754Z" fill="white"/>
</svg>
