<svg width="37" height="38" viewBox="0 0 37 38" fill="none" xmlns="http://www.w3.org/2000/svg">
<path d="M36.6499 5.60159C36.5734 5.37987 36.4437 5.19027 36.2771 5.05679C36.1105 4.92331 35.9146 4.85195 35.7142 4.85171H30.3766C29.7013 3.39429 28.7149 2.17737 27.5181 1.32515C26.3214 0.472922 24.9571 0.015908 23.5645 0.000745678C22.5531 -0.014765 21.5492 0.211843 20.612 0.667249C19.6748 1.12265 18.8231 1.79767 18.107 2.65261C17.369 3.51908 16.7833 4.55337 16.3841 5.69467C15.985 6.83596 15.7806 8.06123 15.7828 9.29844V11.0488C8.68865 9.02759 2.84438 2.05028 2.77682 1.97751C2.6407 1.81576 2.46902 1.70356 2.28172 1.65395C2.09442 1.60434 1.8992 1.61936 1.71876 1.69726C1.53831 1.77517 1.38005 1.91276 1.26236 2.09404C1.14468 2.27532 1.0724 2.49284 1.05394 2.72133C0.336078 12.2656 2.64507 18.6386 4.70914 22.3051C5.77618 24.2258 7.09149 25.9315 8.60589 27.3582C5.98948 31.1985 1.62317 33.1975 1.57587 33.2198C1.43163 33.2836 1.30142 33.386 1.19512 33.519C1.08882 33.652 1.00922 33.8122 0.96234 33.9875C0.915463 34.1628 0.902544 34.3486 0.924561 34.5307C0.946577 34.7129 1.00295 34.8867 1.08941 35.0389C1.25663 35.338 2.90857 38 8.68865 38C20.492 38 30.3479 27.0853 31.2921 13.0701L36.4303 6.92348C36.5721 6.75384 36.6686 6.5377 36.7077 6.3024C36.7468 6.0671 36.7267 5.82321 36.6499 5.60159ZM29.5929 11.6754C29.4183 11.8838 29.3132 12.1612 29.2973 12.4556C28.6081 25.4198 19.5546 35.5745 8.68865 35.5745C6.32392 35.5745 4.84427 35.0874 3.94905 34.6043C5.85773 33.4563 8.96904 31.1925 10.8828 27.7584C10.9591 27.621 11.0112 27.4664 11.0359 27.3041C11.0606 27.1418 11.0573 26.9752 11.0264 26.8145C10.9951 26.6527 10.9363 26.5003 10.8538 26.3668C10.7713 26.2333 10.6668 26.1215 10.5467 26.0383C10.5247 26.0222 8.32888 24.4496 6.32392 20.8397C3.95919 16.5749 2.82918 11.4066 2.94573 5.43383C5.4591 7.98059 10.6429 12.5264 16.6274 13.7209C16.7728 13.7503 16.9218 13.7414 17.064 13.6948C17.2062 13.6482 17.3382 13.565 17.4507 13.4511C17.5633 13.3372 17.6538 13.1952 17.7158 13.0352C17.7778 12.8751 17.8099 12.7008 17.8098 12.5243V9.29844C17.8082 8.38253 17.9597 7.47549 18.2553 6.63063C18.5508 5.78578 18.9846 5.02015 19.531 4.37874C20.057 3.75019 20.6827 3.2537 21.3713 2.91841C22.0599 2.58312 22.7975 2.41579 23.5409 2.42623C25.8093 2.46059 27.9325 4.11801 28.8176 6.54955C28.8965 6.76585 29.0264 6.94991 29.1914 7.07916C29.3564 7.20841 29.5494 7.27723 29.7466 7.2772H33.2667L29.5929 11.6754Z" fill="#514546"/>
</svg>
