<svg width="26" height="26" viewBox="0 0 26 26" fill="none" xmlns="http://www.w3.org/2000/svg">
<path d="M13 15C11.4668 14.9989 9.9544 15.3554 8.58304 16.0411C7.21156 16.7268 6.01889 17.7229 5.09978 18.9503L4.87534 19.25L5.09978 19.5497C6.01889 20.7771 7.21156 21.7732 8.58304 22.4589C9.9543 23.1446 11.4665 23.501 12.9996 23.5M13 15C14.5332 14.9989 16.0456 15.3554 17.417 16.0411C18.7884 16.7268 19.9811 17.7229 20.9002 18.9503L21.1247 19.25L20.9002 19.5497C19.9811 20.7771 18.7884 21.7732 17.417 22.4589C16.0455 23.1447 14.533 23.5011 12.9996 23.5M13 15C13.0001 15 13.0002 15 13.0004 15L13 15.5M13 15C12.9999 15 12.9998 15 12.9996 15L13 15.5M12.9996 23.5L13 23M12.9996 23.5C12.9999 23.5 13.0001 23.5 13.0004 23.5L13 23M13 23C11.5444 23.0011 10.1086 22.6627 8.80664 22.0117C7.50471 21.3607 6.37251 20.4151 5.5 19.25L13 15.5M13 23C14.4556 23.0011 15.8914 22.6627 17.1934 22.0117C18.4953 21.3607 19.6275 20.4151 20.5 19.25C19.6275 18.0849 18.4953 17.1393 17.1934 16.4883C15.8914 15.8373 14.4556 15.4989 13 15.5M25 13C25 19.6276 19.6276 25 13 25C6.37239 25 1 19.6276 1 13C1 6.37239 6.37239 1 13 1C19.6276 1 25 6.37239 25 13ZM16.0052 13.5052C16.8022 12.7082 17.25 11.6272 17.25 10.5C17.25 9.37283 16.8022 8.29183 16.0052 7.4948C15.2082 6.69777 14.1272 6.25 13 6.25C11.8728 6.25 10.7918 6.69777 9.99479 7.4948C9.19777 8.29183 8.75 9.37283 8.75 10.5C8.75 11.6272 9.19777 12.7082 9.99479 13.5052C10.7918 14.3022 11.8728 14.75 13 14.75C14.1272 14.75 15.2082 14.3022 16.0052 13.5052Z" fill="white" stroke="white"/>
</svg>
