<svg width="26" height="26" viewBox="0 0 26 26" fill="none" xmlns="http://www.w3.org/2000/svg">
<path fill-rule="evenodd" clip-rule="evenodd" d="M13 25.5C19.9037 25.5 25.5 19.9037 25.5 13C25.5 6.09625 19.9037 0.5 13 0.5C6.09625 0.5 0.5 6.09625 0.5 13C0.5 19.9037 6.09625 25.5 13 25.5ZM16.75 10.5C16.75 11.4946 16.3549 12.4484 15.6516 13.1517C14.9484 13.8549 13.9946 14.25 13 14.25C12.0054 14.25 11.0516 13.8549 10.3483 13.1517C9.64509 12.4484 9.25 11.4946 9.25 10.5C9.25 9.50544 9.64509 8.55161 10.3483 7.84835C11.0516 7.14509 12.0054 6.75 13 6.75C13.9946 6.75 14.9484 7.14509 15.6516 7.84835C16.3549 8.55161 16.75 9.50544 16.75 10.5ZM5.5 19.25C6.37251 18.0849 7.50471 17.1393 8.80664 16.4883C10.1086 15.8373 11.5444 15.4989 13 15.5C14.4556 15.4989 15.8914 15.8373 17.1934 16.4883C18.4953 17.1393 19.6275 18.0849 20.5 19.25C19.6275 20.4151 18.4953 21.3607 17.1934 22.0117C15.8914 22.6627 14.4556 23.0011 13 23C11.5444 23.0011 10.1086 22.6627 8.80664 22.0117C7.50471 21.3607 6.37251 20.4151 5.5 19.25Z" fill="#BE646D"/>
</svg>
